<?xml version="1.0" encoding="UTF-8"?><svg id="Layer_2" xmlns="http://www.w3.org/2000/svg" xmlns:xlink="http://www.w3.org/1999/xlink" viewBox="0 0 467.86 109.36"><defs><style>.cls-1{fill:none;stroke:url(#linear-gradient);stroke-linejoin:round;stroke-width:4px;}.cls-2{fill:#1b1023;stroke-width:0px;}</style><linearGradient id="linear-gradient" x1="78.46" y1="0" x2="78.46" y2="109.36" gradientUnits="userSpaceOnUse"><stop offset="0" stop-color="#f23dff"/><stop offset="1" stop-color="#9c45ff"/></linearGradient></defs><g id="Layer_1-2"><polyline class="cls-1" points="114.78 2 78.46 107.36 41.8 2.12 40.23 107.36 114.78 2 2 107.36 41.8 2 154.92 107.36 114.78 2 116.69 107.36 41.8 2"/><polygon class="cls-2" points="227.07 71.84 204.03 12.08 191.67 12.08 191.67 97.28 202.23 97.28 202.23 33.56 223.35 87.8 230.79 87.8 251.91 33.56 251.91 97.28 262.47 97.28 262.47 12.08 250.11 12.08 227.07 71.84"/><path class="cls-2" d="M303.51,12.08l-29.04,85.2h10.92l7.68-23.88h31.68l7.68,23.88h10.92l-29.04-85.2h-10.8ZM296.19,63.56l12.72-38.04,12.72,38.04h-25.44Z"/><path class="cls-2" d="M355.35,22.64v-10.56h31.69v10.56h-31.69Z"/><path class="cls-2" d="M438.82,12.08h-10.8l-29.04,85.2h10.92l7.68-23.88h31.68l7.68,23.88h10.92l-29.04-85.2ZM420.7,63.56l12.72-38.04,12.72,38.04h-25.44Z"/><path class="cls-2" d="M365.91,12.08h10.56v85.2h-10.56V12.08Z"/><path class="cls-2" d="M355.35,97.28v-10.56h31.69v10.56h-31.69Z"/></g></svg>